<svg height="511pt" viewBox="-40 1 511 511.999" width="511pt" xmlns="http://www.w3.org/2000/svg">
    <path
        d="m226.429688 173.5625c0-27.734375-22.5625-50.296875-50.296876-50.296875-27.734374 0-50.296874 22.5625-50.296874 50.296875s22.5625 50.296875 50.296874 50.296875c27.734376 0 50.296876-22.5625 50.296876-50.296875zm0 0" />
    <path
        d="m315.375 248.839844c6.710938 0 13.3125.464844 19.785156 1.34375 10.878906-23.21875 16.601563-48.789063 16.601563-74.550782.003906-96.84375-78.785157-175.632812-175.628907-175.632812-96.847656 0-175.632812 78.789062-175.632812 175.632812 0 29.078126 7.292969 57.9375 21.089844 83.464844l132.625 239.871094c4.402344 7.972656 12.800781 12.925781 21.917968 12.925781 9.117188 0 17.515626-4.953125 21.914063-12.917969l5.328125-9.640624c-21.433594-25.46875-34.371094-58.3125-34.371094-94.121094 0-80.710938 65.664063-146.375 146.371094-146.375zm-219.546875-75.277344c0-44.277344 36.027344-80.300781 80.304687-80.300781 44.277344 0 80.300782 36.023437 80.300782 80.300781 0 44.28125-36.023438 80.304688-80.300782 80.304688-44.277343 0-80.304687-36.023438-80.304687-80.304688zm0 0" />
    <path
        d="m315.375 278.425781c-64.394531 0-116.785156 52.390625-116.785156 116.785157 0 64.398437 52.390625 116.789062 116.785156 116.789062 64.398438 0 116.789062-52.390625 116.789062-116.789062 0-64.394532-52.390624-116.785157-116.789062-116.785157zm36.027344 131.652344c5.859375 5.855469 5.859375 15.355469 0 21.214844-2.929688 2.929687-6.769532 4.394531-10.605469 4.394531-3.839844 0-7.679687-1.464844-10.609375-4.394531l-14.808594-14.808594-14.8125 14.808594c-2.929687 2.929687-6.769531 4.394531-10.605468 4.394531-3.839844 0-7.679688-1.464844-10.609376-4.394531-5.859374-5.859375-5.859374-15.359375 0-21.214844l14.808594-14.8125-14.808594-14.808594c-5.859374-5.859375-5.859374-15.359375 0-21.21875 5.859376-5.859375 15.359376-5.859375 21.214844 0l14.8125 14.8125 14.808594-14.8125c5.859375-5.859375 15.359375-5.859375 21.21875 0s5.859375 15.359375 0 21.21875l-14.8125 14.808594zm0 0" />
</svg>