<svg height="512pt" viewBox="-40 0 511 512" width="512pt" xmlns="http://www.w3.org/2000/svg">
    <path
        d="m256.433594 173.5625c0-44.277344-36.023438-80.300781-80.300782-80.300781-44.277343 0-80.300781 36.023437-80.300781 80.300781 0 44.28125 36.023438 80.304688 80.300781 80.304688 44.277344 0 80.300782-36.023438 80.300782-80.304688zm-80.300782 50.296875c-27.734374 0-50.296874-22.5625-50.296874-50.296875s22.5625-50.296875 50.296874-50.296875c27.730469 0 50.296876 22.5625 50.296876 50.296875s-22.5625 50.296875-50.296876 50.296875zm0 0" />
    <path
        d="m319.941406 278.523438 10.714844-19.375.070312-.128907c13.761719-25.480469 21.039063-54.316406 21.039063-83.386719 0-96.84375-78.789063-175.632812-175.632813-175.632812s-175.632812 78.789062-175.632812 175.632812c0 29.078126 7.292969 57.9375 21.089844 83.464844l132.625 239.867188c4.402344 7.976562 12.804687 12.929687 21.917968 12.929687 9.117188 0 17.515626-4.953125 21.914063-12.921875l20.949219-37.886718c21.0625 30.71875 56.40625 50.914062 96.382812 50.914062 64.394532 0 116.785156-52.390625 116.785156-116.785156 0-62.871094-49.933593-114.285156-112.222656-116.691406zm-143.808594 198.074218-128.175781-231.820312c-11.417969-21.144532-17.453125-45.054688-17.453125-69.144532 0-80.300781 65.328125-145.628906 145.628906-145.628906 80.296876 0 145.625 65.328125 145.625 145.628906 0 24.085938-6.015624 47.964844-17.398437 69.0625l-21.140625 38.234376c-48.808594 14-84.628906 59.035156-84.628906 112.28125 0 11.261718 1.609375 22.152343 4.59375 32.460937zm139.246094 5.398438c-47.855468 0-86.785156-38.929688-86.785156-86.78125 0-47.855469 38.929688-86.785156 86.785156-86.785156 47.847656 0 86.78125 38.929687 86.78125 86.785156 0 47.851562-38.933594 86.78125-86.78125 86.78125zm0 0" />
    <path
        d="m351.40625 359.1875c-5.859375-5.859375-15.359375-5.859375-21.21875 0l-14.808594 14.808594-14.8125-14.808594c-5.859375-5.859375-15.359375-5.859375-21.214844 0-5.859374 5.855469-5.859374 15.355469 0 21.214844l14.808594 14.8125-14.808594 14.808594c-5.859374 5.859374-5.859374 15.359374 0 21.214843 2.929688 2.929688 6.765626 4.398438 10.605469 4.398438 3.839844 0 7.679688-1.464844 10.609375-4.398438l14.808594-14.808593 14.8125 14.808593c2.929688 2.929688 6.769531 4.398438 10.605469 4.398438 3.839843 0 7.679687-1.464844 10.609375-4.398438 5.859375-5.855469 5.859375-15.355469 0-21.214843l-14.8125-14.808594 14.8125-14.8125c5.859375-5.859375 5.859375-15.359375.003906-21.214844zm0 0" />
</svg>