<svg height="428pt" viewBox="-37 0 428 428.00018" width="428pt" xmlns="http://www.w3.org/2000/svg">
    <path
        d="m95.710938 239.601562c0 6.179688-5.011719 11.1875-11.191407 11.1875-6.175781 0-11.1875-5.007812-11.1875-11.1875 0-6.179687 5.011719-11.1875 11.1875-11.1875 6.179688 0 11.191407 5.007813 11.191407 11.1875zm0 0" />
    <path
        d="m244.667969 239.601562c0 6.179688-5.011719 11.1875-11.1875 11.1875-6.179688 0-11.1875-5.007812-11.1875-11.1875 0-6.179687 5.007812-11.1875 11.1875-11.1875 6.175781 0 11.1875 5.007813 11.1875 11.1875zm0 0" />
    <path
        d="m244.667969 310.644531c0 6.175781-5.011719 11.1875-11.1875 11.1875-6.179688 0-11.1875-5.011719-11.1875-11.1875 0-6.179687 5.007812-11.191406 11.1875-11.191406 6.175781 0 11.1875 5.011719 11.1875 11.191406zm0 0" />
    <path
        d="m170.1875 170.851562c0 6.179688-5.007812 11.1875-11.1875 11.1875s-11.1875-5.007812-11.1875-11.1875c0-6.179687 5.007812-11.1875 11.1875-11.1875s11.1875 5.007813 11.1875 11.1875zm0 0" />
    <path
        d="m170.1875 239.601562c0 6.179688-5.007812 11.1875-11.1875 11.1875s-11.1875-5.007812-11.1875-11.1875c0-6.179687 5.007812-11.1875 11.1875-11.1875s11.1875 5.007813 11.1875 11.1875zm0 0" />
    <path
        d="m95.710938 170.851562c0 6.179688-5.011719 11.1875-11.191407 11.1875-6.175781 0-11.1875-5.007812-11.1875-11.1875 0-6.179687 5.011719-11.1875 11.1875-11.1875 6.179688 0 11.191407 5.007813 11.191407 11.1875zm0 0" />
    <path
        d="m170.1875 310.644531c0 6.175781-5.007812 11.1875-11.1875 11.1875s-11.1875-5.011719-11.1875-11.1875c0-6.179687 5.007812-11.191406 11.1875-11.191406s11.1875 5.011719 11.1875 11.191406zm0 0" />
    <path
        d="m45.523438 428h278.476562c16.929688-.019531 30.648438-13.738281 30.667969-30.667969v-351.804687c.042969-13.917969-8.4375-26.445313-21.375-31.570313l-3.328125-1.332031c.023437.457031.035156.914062.035156 1.375v363.332031c-.015625 14.355469-11.648438 25.984375-26 26h-290c-.460938 0-.921875-.011719-1.375-.035156l1.332031 3.332031c5.125 12.9375 17.652344 21.417969 31.566407 21.371094zm0 0" />
    <path
        d="m304 391.332031c7.726562-.007812 13.992188-6.269531 14-14v-363.332031c-.007812-7.726562-6.273438-13.9921875-14-14h-290c-7.726562.0078125-13.9921875 6.269531-14 14v363.332031c.0078125 7.730469 6.273438 13.992188 14 14zm-219.480469-57.5c-12.804687 0-23.1875-10.378906-23.1875-23.1875 0-12.804687 10.382813-23.1875 23.1875-23.1875 12.808594 0 23.1875 10.382813 23.1875 23.1875-.015625 12.800781-10.386719 23.171875-23.1875 23.183594zm0-71.039062c-12.804687 0-23.1875-10.382813-23.1875-23.1875 0-12.804688 10.378907-23.1875 23.183594-23.191407 12.808594 0 23.191406 10.378907 23.191406 23.1875-.011719 12.800782-10.386719 23.171876-23.1875 23.1875zm0-68.75c-12.804687 0-23.1875-10.382813-23.1875-23.1875 0-12.808594 10.382813-23.1875 23.1875-23.191407 12.808594 0 23.1875 10.382813 23.1875 23.191407-.015625 12.796875-10.386719 23.167969-23.1875 23.183593zm92.835938 182.9375h-36.710938c-3.3125 0-6-2.6875-6-6 0-3.316407 2.6875-6 6-6h36.710938c3.3125 0 6 2.683593 6 6 0 3.3125-2.6875 6-6 6zm-18.355469-160.566407c12.808594 0 23.1875 10.382813 23.1875 23.1875 0 12.808594-10.382812 23.1875-23.1875 23.1875-12.808594 0-23.1875-10.382812-23.1875-23.1875.015625-12.800781 10.386719-23.171874 23.1875-23.1875zm-23.1875-45.5625c0-12.808593 10.382812-23.1875 23.1875-23.1875s23.1875 10.378907 23.1875 23.1875c0 12.804688-10.382812 23.1875-23.1875 23.1875-12.800781-.015624-23.175781-10.386718-23.1875-23.1875zm23.1875 116.597657c12.804688 0 23.1875 10.382812 23.1875 23.191406 0 12.804687-10.382812 23.1875-23.1875 23.1875s-23.1875-10.382813-23.1875-23.1875c.015625-12.800781 10.390625-23.171875 23.1875-23.1875zm74.480469 46.375c-12.808594.003906-23.191407-10.378907-23.191407-23.1875 0-12.804688 10.382813-23.1875 23.1875-23.1875 12.808594 0 23.191407 10.382812 23.191407 23.191406-.015625 12.800781-10.386719 23.175781-23.1875 23.1875zm0-71.039063c-12.808594 0-23.191407-10.382812-23.191407-23.1875 0-12.808594 10.382813-23.191406 23.191407-23.1875 12.804687 0 23.1875 10.382813 23.1875 23.191406-.015625 12.800782-10.386719 23.171876-23.1875 23.1875zm0-68.75c-12.808594 0-23.191407-10.382812-23.191407-23.1875 0-12.804687 10.382813-23.1875 23.1875-23.1875 12.808594 0 23.191407 10.378906 23.191407 23.1875-.015625 12.800782-10.386719 23.175782-23.1875 23.191406zm-178.257813-140.535156c0-3.3125 2.6875-6 6-6h195.554688c3.3125 0 6 2.6875 6 6v50.484375c0 3.3125-2.6875 6-6 6h-195.554688c-3.3125 0-6-2.6875-6-6zm0 0" />
    <path
        d="m95.710938 310.644531c0 6.175781-5.011719 11.1875-11.191407 11.1875-6.175781 0-11.1875-5.011719-11.1875-11.1875 0-6.179687 5.011719-11.191406 11.1875-11.191406 6.179688 0 11.191407 5.011719 11.191407 11.191406zm0 0" />
    <path d="m67.222656 59.503906h183.554688v38.484375h-183.554688zm0 0" />
    <path
        d="m244.667969 170.851562c0 6.179688-5.011719 11.1875-11.1875 11.1875-6.179688 0-11.1875-5.007812-11.1875-11.1875 0-6.179687 5.007812-11.1875 11.1875-11.1875 6.175781 0 11.1875 5.007813 11.1875 11.1875zm0 0" />
</svg>