<svg id="Layer_1" enable-background="new 0 0 512 512" height="512" viewBox="0 0 512 512" width="512"
    xmlns="http://www.w3.org/2000/svg">
    <g>
        <path
            d="m285.612 235.999c3.5-45.636 41.923-81.73 88.74-81.987v-139.012c0-8.284-6.716-15-15-15h-325c-8.284 0-15 6.716-15 15v381c0 8.284 6.716 15 15 15h192.703v-130.809c0-24.368 19.824-44.192 44.192-44.192zm-116.26-175.499h133.999c8.284 0 15 6.716 15 15s-6.716 15-15 15h-133.999c-8.284 0-15-6.716-15-15s6.716-15 15-15zm-49.162 191.721-28.859 31c-2.843 3.053-6.823 4.779-10.978 4.779-.182 0-.363-.003-.546-.01-4.352-.158-8.419-2.2-11.147-5.594l-12-14.931c-5.189-6.457-4.161-15.899 2.296-21.088s15.898-4.162 21.089 2.295l1.141 1.419 17.048-18.313c5.646-6.063 15.138-6.403 21.199-.758 6.063 5.646 6.402 15.137.757 21.201zm0-91-28.859 31c-2.843 3.053-6.823 4.779-10.978 4.779-.182 0-.363-.003-.546-.01-4.352-.158-8.419-2.2-11.147-5.594l-12-14.931c-5.189-6.457-4.161-15.899 2.296-21.088 6.457-5.19 15.898-4.161 21.089 2.295l1.141 1.419 17.048-18.313c5.646-6.063 15.138-6.402 21.199-.758 6.063 5.646 6.402 15.137.757 21.201zm0-91-28.859 31c-2.843 3.053-6.823 4.779-10.978 4.779-.182 0-.363-.003-.546-.01-4.352-.158-8.419-2.2-11.147-5.594l-12-14.931c-5.189-6.457-4.161-15.899 2.296-21.088 6.457-5.19 15.898-4.161 21.089 2.295l1.141 1.419 17.048-18.313c5.646-6.063 15.138-6.402 21.199-.758 6.063 5.646 6.402 15.137.757 21.201zm74.159 202.279h-24.997c-8.284 0-15-6.716-15-15s6.716-15 15-15h24.997c8.284 0 15 6.716 15 15s-6.716 15-15 15zm59.001-91h-83.998c-8.284 0-15-6.716-15-15s6.716-15 15-15h83.998c8.284 0 15 6.716 15 15s-6.716 15-15 15z" />
        <path
            d="m478.456 265.999h-44.104v36.701c0 8.284-6.716 15-15 15s-15-6.716-15-15v-36.701h-59v36.701c0 8.284-6.716 15-15 15s-15-6.716-15-15v-36.701h-44.105c-7.838 0-14.192 6.354-14.192 14.192v176.261c0 30.629 24.958 55.548 55.634 55.548h124.326c30.677 0 55.634-24.919 55.634-55.548v-176.261c-.001-7.838-6.355-14.192-14.193-14.192z" />
        <path
            d="m345.352 242.8c0-15.88 13.233-28.8 29.5-28.8s29.5 12.919 29.5 28.8v23.199h30v-23.199c0-32.422-26.691-58.8-59.5-58.8s-59.5 26.377-59.5 58.8v23.199h30z" />
    </g>
</svg>