<svg id="Layer_1" enable-background="new 0 0 511 511" height="512" viewBox="0 0 511 511" width="512"
    xmlns="http://www.w3.org/2000/svg">
    <g>
        <path d="m207.5 48h128v15h-128z" />
        <path d="m207.5 80h96v15h-96z" />
        <path
            d="m402.606 0h-250.606v167.5h15v-152.5h225v80h80v337h-160.5v15h175.5v-362.606zm4.394 25.606 54.394 54.394h-54.394z" />
        <path d="m111.5 368h16v15h-16z" />
        <path
            d="m231 335h208v-207h-239v176h-33v-120.5h-15v120.5h-64v96h-64v111h271v-111h-64zm48-15v-33h145v33zm-15-96h-49v-33h49zm15-33h145v33h-145zm-15 48v33h-49v-33zm15 0h145v33h-145zm145-63h-145v-33h145zm-160-33v33h-49v-33zm-49 144h49v33h-33v-16h-16zm-64 32h17v33h-17zm-48 0h33v48h47v-48h33v81h-113zm112 96h17v33h-17zm-128 0h17v33h-17zm-48 0h33v48h47v-48h33v81h-113zm241 81h-113v-81h33v48h47v-48h33z" />
        <path d="m47.5 464h16v15h-16z" />
        <path d="m175.5 464h16v15h-16z" />
    </g>
</svg>