<?xml version="1.0" encoding="iso-8859-1"?><!-- Generator: Adobe Illustrator 19.0.0, SVG Export Plug-In . SVG Version: 6.00 Build 0)  -->
<svg version="1.1" id="Capa_1" xmlns="http://www.w3.org/2000/svg"
    xmlns:xlink="http://www.w3.org/1999/xlink" x="0px" y="0px" viewBox="0 0 480 480"
    style="enable-background:new 0 0 480 480;" xml:space="preserve">
<g>
	<g>
		<path d="M168,272H40c-4.418,0-8,3.582-8,8v128c0,4.418,3.582,8,8,8h128c4.418,0,8-3.582,8-8V280C176,275.582,172.418,272,168,272z
			 M160,400H48V288h112V400z" />
	</g>
</g>
    <g>
	<g>
		<path d="M414.969,0H104c-4.418,0-8,3.582-8,8v152H40c-4.418,0-8,3.582-8,8v32.063c-0.309,9.331-5.228,17.901-13.129,22.875
			C6.527,230.848,0,246.891,0,269.332V472c0,4.418,3.582,8,8,8h464c4.418,0,8-3.582,8-8V65.031
			C479.96,29.132,450.868,0.04,414.969,0z M48,176h112v24H48V176z M192,464H16V269.332c0-16.48,4.086-28.172,11.5-32.922
			c7.667-4.909,13.668-12.025,17.213-20.41h118.574c3.544,8.384,9.543,15.498,17.209,20.406C187.914,241.16,192,252.852,192,269.332
			V464z M189.125,222.934c-7.9-4.973-12.817-13.542-13.125-22.871V168c0-4.418-3.582-8-8-8h-8v-16h256v192H208v-66.668
			C208,246.891,201.473,230.848,189.125,222.934z M464,464H208V352h216c4.418,0,8-3.582,8-8V136c0-4.418-3.582-8-8-8H152
			c-4.418,0-8,3.582-8,8v24h-32V80h272V64H112V16h302.969c26.654,0.039,48.402,21.352,48.979,48H432v16h32V464z" />
	</g>
</g>
    <g>
	<g>
		<path d="M357.584,219.161c-1.196-1.166-2.726-1.928-4.377-2.181l-40-6.109l-17.965-38.27c-1.877-4-6.641-5.72-10.641-3.843
			c-1.69,0.793-3.05,2.153-3.843,3.843l-17.965,38.27l-40,6.109c-4.368,0.668-7.368,4.751-6.7,9.119
			c0.252,1.651,1.015,3.181,2.181,4.377l29.18,29.906l-6.902,42.328c-0.713,4.359,2.243,8.471,6.602,9.184
			c1.773,0.29,3.592-0.025,5.163-0.895L288,291.277L323.684,311c3.865,2.139,8.732,0.739,10.871-3.126
			c0.87-1.572,1.185-3.391,0.895-5.163l-6.902-42.328l29.18-29.906C360.812,227.313,360.748,222.247,357.584,219.161z
			 M314.273,252.102c-1.774,1.817-2.579,4.369-2.168,6.875l4.902,30.051l-25.137-13.891c-2.409-1.333-5.334-1.333-7.742,0
			l-25.137,13.891l4.902-30.051c0.411-2.506-0.394-5.058-2.168-6.875l-21.125-21.652l28.828-4.402
			c2.637-0.406,4.9-2.097,6.035-4.512L288,194.828l12.535,26.707c1.135,2.415,3.398,4.106,6.035,4.512l28.828,4.402L314.273,252.102
			z" />
	</g>
</g>
    <g>
	<g>
		<path d="M141.587,330.721c-1.196-1.167-2.728-1.93-4.38-2.182l-17.891-2.734l-8.074-17.203c-1.877-4-6.641-5.721-10.641-3.843
			c-1.69,0.793-3.05,2.153-3.844,3.843l-8.074,17.203l-17.891,2.734c-4.367,0.666-7.367,4.745-6.701,9.112
			c0.252,1.652,1.015,3.184,2.182,4.38l13.18,13.508l-3.125,19.172c-0.713,4.359,2.243,8.471,6.602,9.184
			c1.773,0.29,3.592-0.025,5.163-0.895L104,374.207L119.906,383c3.865,2.139,8.732,0.739,10.87-3.126
			c0.87-1.572,1.185-3.391,0.895-5.163l-3.125-19.172l13.18-13.508C144.811,338.869,144.749,333.806,141.587,330.721z
			 M114.273,347.258c-1.774,1.817-2.579,4.369-2.168,6.875l1.125,6.895l-5.359-2.961c-2.409-1.333-5.334-1.333-7.742,0l-5.359,2.961
			l1.125-6.895c0.411-2.506-0.394-5.058-2.168-6.875L88.598,342l6.723-1.023c2.638-0.404,4.901-2.096,6.035-4.512l2.645-5.636
			l2.645,5.637c1.134,2.416,3.397,4.108,6.035,4.512l6.723,1.023L114.273,347.258z" />
	</g>
</g>
    <g>
	<g>
		<rect x="400" y="64" width="16" height="16" />
	</g>
</g>
    <g>
</g>
    <g>
</g>
    <g>
</g>
    <g>
</g>
    <g>
</g>
    <g>
</g>
    <g>
</g>
    <g>
</g>
    <g>
</g>
    <g>
</g>
    <g>
</g>
    <g>
</g>
    <g>
</g>
    <g>
</g>
    <g>
</g>
</svg>
