<svg height="512" viewBox="0 0 512 512" width="512" xmlns="http://www.w3.org/2000/svg">
    <g id="Solid">
        <path d="m130.234 194.602 40.602 11.601 3.284-9.85-40.605-11.602z" />
        <path d="m208 82.605-96 27.43v51.93l96 27.43z" />
        <path d="m72 112h24v48h-24z" />
        <path d="m368 88a24.027 24.027 0 0 0 -24-24h-24v32h48z" />
        <path
            d="m329.616 432h-185.616v24a24.027 24.027 0 0 0 24 24h169.366a77.578 77.578 0 0 1 -7.75-48zm-65.616 32h-16v-16h16z" />
        <path
            d="m422.188 288.945-38.188-49.484v101.227l29.656 29.656-11.312 11.312-68-68a20.285 20.285 0 0 0 -28.688 28.688l52 52a8 8 0 0 1 1 10.094l-3.586 5.378a61.837 61.837 0 0 0 .914 70.184h84.016v-143.645a72.007 72.007 0 0 0 -17.812-47.41z" />
        <path
            d="m294.344 302.344a36.278 36.278 0 0 1 51.312 0l22.344 22.344v-212.688h-48v120a40.047 40.047 0 0 1 -40 40h-86.773l6.695 46.867a8 8 0 0 1 -12.836 7.449l-43.086-33.516v123.2h189.964a78.647 78.647 0 0 1 7.739-14.98l-47.359-47.364a36.32 36.32 0 0 1 0-51.312z" />
        <path
            d="m176.078 265.133a8 8 0 0 1 7.922-9.133h96a24.027 24.027 0 0 0 24-24v-176a24.027 24.027 0 0 0 -24-24h-224a24.027 24.027 0 0 0 -24 24v176a24.027 24.027 0 0 0 24 24h64a8.019 8.019 0 0 1 4.914 1.684l56.367 43.843zm100.344-192.289 7.156 14.312-32 16-7.156-14.312zm3.578 55.156v16h-32v-16zm-28.422 40.844 32 16-7.156 14.312-32-16zm-77.773 54.847-56-16a7.991 7.991 0 0 1 -5.391-10.222l5.706-17.116-15.235-4.353h-38.885a8 8 0 0 1 -8-8v-64a8 8 0 0 1 8-8h38.885l110.92-31.691a8 8 0 0 1 10.195 7.691v128a7.994 7.994 0 0 1 -10.195 7.691l-24.292-6.94-5.927 17.78a8 8 0 0 1 -7.586 5.469 7.913 7.913 0 0 1 -2.195-.309z" />
    </g>
</svg>