<svg id="Layer_35" enable-background="new 0 0 64 64" height="512" viewBox="0 0 64 64" width="512"
    xmlns="http://www.w3.org/2000/svg">
    <path
        d="m53 45h-10v-4h-8v20h26v-20h-8zm-2 14h-2v-2h2zm4 0h-2v-2h2zm4 0h-2v-2h2zm0-4h-10v-2h10z" />
    <path d="m45 41h6v2h-6z" />
    <path d="m41 17h10v4h6v-18h-6v4h-10v-4h-6v18h6z" />
    <path d="m15 3h6v2h-6z" />
    <path d="m43 3h6v2h-6z" />
    <path d="m13 17h10v4h6v-18h-6v4h-10v-4h-6v18h6z" />
    <circle cx="16" cy="29" r="6" />
    <path d="m43 19h6v2h-6z" />
    <path d="m15 19h6v2h-6z" />
    <path
        d="m16 37c-7.168 0-13 5.832-13 13 0 1.654 1.346 3 3 3h9.5c.827 0 1.5-.673 1.5-1.5s-.673-1.5-1.5-1.5h-8.5v-2h3v-7h10.414l5.586 5.586v14.414h3v-11c0-7.168-5.832-13-13-13z" />
    <path d="m10.726 23h-7.726v2h6.082c.438-.753.994-1.428 1.644-2z" />
    <path d="m21 46h1.586l-1.586-1.586z" />
    <path d="m21.274 23c.65.572 1.206 1.247 1.644 2h38.082v-2z" />
    <path d="m6 55h4v6h-4z" />
    <path d="m19 43h-7v5h3.5c1.93 0 3.5 1.57 3.5 3.5s-1.57 3.5-3.5 3.5h-3.5v6h12v-13h-5z" />
</svg>